PathFileType	4	(X/Y/Z)	/Users/itak/Documents/Research/Walk-IL/dataset/trc/00580_00009.trc
DataRate	CameraRate	NumFrames	NumMarkers	Units	OrigDataRate	OrigDataStartFrame	OrigNumFrames
100.000000	100.000000	4	53	mm	100.000000	67	536
Frame#	Time	RPSI			LPSI			L3			STRN			T10			C7			CLAV			RBAK			LBAK			LSHO			LUPA			LAEL			LAOL			LWTS			LWPS			LFRA			LIFD			LHPS			LHTS			RSHO			RUPA			RAEL			RAOL			RWTS			RWPS			RFRA			RIFD			RHTS			RHPS			RBHD			LFHD			RFHD			LBHD			LHIP			RHIP			RASI			LASI			LKNE			LTHI			LANK			LTIP			LTOE			LMT1			LMT5			LHEE			RKNE			RTHI			RANK			RTIP			RTOE			RMT1			RMT5			RHEE			
		X1	Y1	Z1	X2	Y2	Z2	X3	Y3	Z3	X4	Y4	Z4	X5	Y5	Z5	X6	Y6	Z6	X7	Y7	Z7	X8	Y8	Z8	X9	Y9	Z9	X10	Y10	Z10	X11	Y11	Z11	X12	Y12	Z12	X13	Y13	Z13	X14	Y14	Z14	X15	Y15	Z15	X16	Y16	Z16	X17	Y17	Z17	X18	Y18	Z18	X19	Y19	Z19	X20	Y20	Z20	X21	Y21	Z21	X22	Y22	Z22	X23	Y23	Z23	X24	Y24	Z24	X25	Y25	Z25	X26	Y26	Z26	X27	Y27	Z27	X28	Y28	Z28	X29	Y29	Z29	X30	Y30	Z30	X31	Y31	Z31	X32	Y32	Z32	X33	Y33	Z33	X34	Y34	Z34	X35	Y35	Z35	X36	Y36	Z36	X37	Y37	Z37	X38	Y38	Z38	X39	Y39	Z39	X40	Y40	Z40	X41	Y41	Z41	X42	Y42	Z42	X43	Y43	Z43	X44	Y44	Z44	X45	Y45	Z45	X46	Y46	Z46	X47	Y47	Z47	X48	Y48	Z48	X49	Y49	Z49	X50	Y50	Z50	X51	Y51	Z51	X52	Y52	Z52	X53	Y53	Z53	

68	0.67	-1280.44189453125	1013.249389648438	-206.096923828125	-1206.484619140625	1015.551879882812	-317.8036804199219	-1240.926879882812	1105.439453125	-263.9876708984375	-1033.31396484375	1294.197631835938	-151.4347991943359	-1248.313354492188	1232.011108398438	-267.9144897460938	-1211.376953125	1505.517700195312	-234.0418853759766	-1051.026611328125	1405.73974609375	-160.75439453125	-1312.709716796875	1379.099731445312	-193.8306884765625	-1197.972045898438	1454.740600585938	-331.0495300292969	-1073.748657226562	1479.90380859375	-358.630615234375	-1044.619506835938	1353.045043945312	-432.8679809570312	-1009.347534179688	1131.810913085938	-438.3384704589844	-1110.173706054688	1123.8466796875	-440.3602600097656	-963.815673828125	883.3627319335938	-357.8044128417969	-962.5006103515625	865.6417236328125	-443.0569763183594	-986.4539184570312	1045.3544921875	-434.0201721191406	-974.2040405273438	712.958251953125	-360.573974609375	-961.8289794921875	803.9674682617188	-435.0191650390625	-942.8224487304688	805.1588134765625	-370.3315124511719	-1234.650634765625	1466.384521484375	-70.07473754882812	-1282.535766601562	1400.39599609375	-21.0637092590332	-1305.6259765625	1110.979614257812	16.41785430908203	-1341.108642578125	1093.377075195312	-33.55154800415039	-1165.61669921875	893.3687133789062	48.70676422119141	-1238.218383789062	872.0347900390625	83.39479064941406	-1299.839721679688	1056.052124023438	28.12853813171387	-1159.255004882812	720.8335571289062	54.637451171875	-1148.608764648438	802.0488891601562	76.79591369628906	-1222.620727539062	798.39599609375	91.2823486328125	-1177.70947265625	1683.70361328125	-138.3396453857422	-978.0562744140625	1713.907592773438	-191.7330780029297	-1058.528198242188	1710.963134765625	-69.70765686035156	-1080.8798828125	1685.878295898438	-272.6765747070312	-1035.699951171875	938.0482177734375	-366.2281494140625	-1241.84912109375	933.9111938476562	-42.68720626831055	-1135.577880859375	966.6881103515625	-43.55496978759766	-992.8668823242188	961.6636352539062	-281.4175415039062	-1050.414306640625	492.168701171875	-311.5903625488281	-1029.035278320312	657.7461547851562	-341.1784362792969	-1140.89892578125	33.58230590820312	-354.1152648925781	-1114.202758789062	250.3392639160156	-349.7759399414062	-980.37451171875	35.63777542114258	-204.7786865234375	-1063.454345703125	37.42057418823242	-207.9887847900391	-1026.34130859375	35.59529113769531	-308.7464294433594	-1227.09423828125	29.63583564758301	-339.0311584472656	-1193.223754882812	491.7200622558594	-80.05467987060547	-1206.060668945312	779.1445922851562	-26.92800521850586	-1281.517456054688	36.64741134643555	-168.3386993408203	-1192.5361328125	348.1330871582031	-100.1049728393555	-1075.857788085938	36.07377243041992	-76.09479522705078	-1104.302368164062	37.14000701904297	-147.9944305419922	-1183.52685546875	37.83692932128906	-77.95710754394531	-1294.314086914062	27.5245475769043	-243.3419189453125	
69	0.68	-1280.628295898438	1013.270629882812	-205.8919677734375	-1206.078125	1015.271240234375	-317.3408203125	-1241.00390625	1105.51953125	-263.8125305175781	-1033.33447265625	1294.1767578125	-151.1222534179688	-1248.337524414062	1232.047241210938	-267.7696533203125	-1211.308837890625	1505.5263671875	-233.7305145263672	-1051.089599609375	1405.701538085938	-160.3022613525391	-1312.751098632812	1379.171142578125	-193.5828399658203	-1197.768310546875	1454.757080078125	-330.6824951171875	-1073.635864257812	1479.910034179688	-358.231201171875	-1044.308349609375	1353.073608398438	-432.4287109375	-1008.9404296875	1131.810913085938	-437.6769409179688	-1109.832275390625	1123.786987304688	-439.8974914550781	-963.303955078125	883.5034790039062	-356.76806640625	-961.7235717773438	865.73388671875	-442.0088500976562	-985.9671020507812	1045.409301757812	-433.2351684570312	-973.6571044921875	713.1659545898438	-359.502685546875	-961.3140869140625	804.0496826171875	-433.9855651855469	-942.1710815429688	805.343994140625	-369.178466796875	-1234.714111328125	1466.408325195312	-69.77157592773438	-1282.661499023438	1400.42333984375	-20.80622291564941	-1305.813842773438	1111.010131835938	16.63574409484863	-1341.260498046875	1093.432495117188	-33.39258575439453	-1165.826538085938	893.3746948242188	48.90585708618164	-1238.501831054688	872.0712280273438	83.65029144287109	-1300.076904296875	1056.1025390625	28.36641502380371	-1159.482788085938	720.827880859375	54.82490921020508	-1149.014038085938	802.0983276367188	77.22967529296875	-1222.88916015625	798.4319458007812	91.51513671875	-1177.5634765625	1683.717407226562	-137.9486083984375	-977.8795776367188	1713.796020507812	-191.2301940917969	-1058.581665039062	1710.882690429688	-69.01878356933594	-1080.675415039062	1685.823974609375	-272.2247619628906	-1035.956420898438	938.1029052734375	-366.2062072753906	-1242.082885742188	933.88330078125	-42.51917266845703	-1135.808471679688	966.6629638671875	-43.37420654296875	-992.9794921875	961.6311645507812	-281.1039733886719	-1050.472412109375	492.2926025390625	-311.513916015625	-1029.16845703125	657.8572998046875	-341.0367736816406	-1140.893798828125	33.57679748535156	-354.1192932128906	-1114.257080078125	250.3697052001953	-349.7274475097656	-980.3731689453125	35.63625717163086	-204.7864074707031	-1063.44921875	37.4127082824707	-207.9951019287109	-1026.344970703125	35.59600067138672	-308.750244140625	-1227.0947265625	29.62740898132324	-339.0317687988281	-1193.354370117188	491.7022705078125	-79.94417572021484	-1206.27978515625	779.109130859375	-26.75823402404785	-1281.517700195312	36.64580535888672	-168.3381042480469	-1192.612915039062	348.1084594726562	-100.0389251708984	-1075.855834960938	36.06352233886719	-76.09422302246094	-1104.309204101562	37.14098739624023	-147.9859619140625	-1183.52392578125	37.83795166015625	-77.95639801025391	-1294.311645507812	27.52244567871094	-243.3404998779297	
70	0.6900000000000001	-1280.816040039062	1013.289733886719	-205.6860198974609	-1205.520263671875	1014.888366699219	-316.7660522460938	-1241.083862304688	1105.6025390625	-263.6269226074219	-1033.35302734375	1294.154052734375	-150.8032531738281	-1248.366821289062	1232.086181640625	-267.6128234863281	-1211.248901367188	1505.536499023438	-233.4039306640625	-1051.151489257812	1405.668334960938	-159.8425903320312	-1312.808227539062	1379.242553710938	-193.3066558837891	-1197.584838867188	1454.77685546875	-330.3285827636719	-1073.500244140625	1479.905517578125	-357.8191833496094	-1043.977416992188	1353.094848632812	-431.9515991210938	-1008.49853515625	1131.810791015625	-436.9429016113281	-1109.445922851562	1123.701416015625	-439.3690795898438	-962.7239990234375	883.677490234375	-355.6313781738281	-960.8743896484375	865.8085327148438	-440.8237915039062	-985.4319458007812	1045.452026367188	-432.38330078125	-973.0684814453125	713.4044799804688	-358.2932434082031	-960.7235717773438	804.1751098632812	-432.8542175292969	-941.4780883789062	805.5599365234375	-367.8869934082031	-1234.769287109375	1466.430541992188	-69.46640777587891	-1282.807250976562	1400.449584960938	-20.52976036071777	-1306.009155273438	1111.040649414062	16.86492729187012	-1341.421020507812	1093.4873046875	-33.21712493896484	-1166.068969726562	893.3914794921875	49.15009307861328	-1238.7939453125	872.1112670898438	83.91908264160156	-1300.313232421875	1056.151123046875	28.59309196472168	-1159.75048828125	720.8355712890625	55.07709503173828	-1149.414794921875	802.1483764648438	77.67836761474609	-1223.152587890625	798.4641723632812	91.74092864990234	-1177.42041015625	1683.722534179688	-137.5267333984375	-977.7154541015625	1713.676147460938	-190.6915588378906	-1058.59814453125	1710.784790039062	-68.34545135498047	-1080.477905273438	1685.760986328125	-271.7475891113281	-1036.228881835938	938.1477661132812	-366.1042785644531	-1242.318603515625	933.8530883789062	-42.35209274291992	-1136.045166015625	966.632568359375	-43.19632720947266	-993.1279296875	961.5755615234375	-280.7737121582031	-1050.506958007812	492.4202880859375	-311.4183044433594	-1029.301147460938	657.9697875976562	-340.8747863769531	-1140.8896484375	33.57345199584961	-354.1230163574219	-1114.29931640625	250.3952026367188	-349.6762390136719	-980.3720703125	35.63494491577148	-204.7934265136719	-1063.444458007812	37.40461349487305	-208.0018157958984	-1026.348388671875	35.5959358215332	-308.7525634765625	-1227.094848632812	29.61990547180176	-339.0321655273438	-1193.523315429688	491.6889038085938	-79.83269500732422	-1206.516357421875	779.0767211914062	-26.5834846496582	-1281.51904296875	36.64474868774414	-168.3353424072266	-1192.720825195312	348.0885620117188	-99.96788024902344	-1075.857421875	36.05477523803711	-76.09445953369141	-1104.321655273438	37.14093399047852	-147.9758605957031	-1183.524169921875	37.83963012695312	-77.955322265625	-1294.305419921875	27.51678657531738	-243.3370819091797	
71	0.7000000000000001	-1281.001708984375	1013.304260253906	-205.4878692626953	-1204.804321289062	1014.395751953125	-316.0655517578125	-1241.166748046875	1105.68505859375	-263.4297180175781	-1033.38134765625	1294.125244140625	-150.4565277099609	-1248.404541015625	1232.131103515625	-267.4378662109375	-1211.196655273438	1505.548706054688	-233.0645294189453	-1051.20703125	1405.641845703125	-159.3773040771484	-1312.877197265625	1379.3154296875	-193.0069427490234	-1197.42041015625	1454.800903320312	-329.9909973144531	-1073.3330078125	1479.89306640625	-357.3932495117188	-1043.636352539062	1353.103393554688	-431.4386596679688	-1008.021118164062	1131.806396484375	-436.1486511230469	-1109.010009765625	1123.59326171875	-438.77978515625	-962.078857421875	883.890380859375	-354.3907165527344	-959.972412109375	865.8643798828125	-439.5059509277344	-984.854736328125	1045.482299804688	-431.4687194824219	-972.480712890625	713.6442260742188	-356.9286193847656	-960.0484008789062	804.3382568359375	-431.6036682128906	-940.7858276367188	805.777099609375	-366.4405517578125	-1234.812133789062	1466.450439453125	-69.15966033935547	-1282.968627929688	1400.476806640625	-20.2341423034668	-1306.217041015625	1111.073608398438	17.10891914367676	-1341.59716796875	1093.543212890625	-33.01673889160156	-1166.341430664062	893.4204711914062	49.43715667724609	-1239.087646484375	872.1549682617188	84.19239044189453	-1300.552612304688	1056.197387695312	28.81305503845215	-1160.046508789062	720.8587036132812	55.38191604614258	-1149.803833007812	802.197998046875	78.12766265869141	-1223.4169921875	798.493408203125	91.96717834472656	-1177.28564453125	1683.722900390625	-137.0812377929688	-977.5647583007812	1713.547607421875	-190.1204528808594	-1058.567626953125	1710.669067382812	-67.71079254150391	-1080.285888671875	1685.691528320312	-271.2508239746094	-1036.48583984375	938.1810302734375	-365.9076843261719	-1242.5546875	933.8232421875	-42.18593215942383	-1136.290283203125	966.597900390625	-43.01567459106445	-993.2977905273438	961.50634765625	-280.4300231933594	-1050.522216796875	492.5462951660156	-311.3004150390625	-1029.43017578125	658.072998046875	-340.6920166015625	-1140.887329101562	33.57297134399414	-354.1263427734375	-1114.330078125	250.4153137207031	-349.6240844726562	-980.3712768554688	35.63398742675781	-204.7990875244141	-1063.442138671875	37.39823150634766	-208.0074005126953	-1026.350463867188	35.59443664550781	-308.75341796875	-1227.095703125	29.61417579650879	-339.0326843261719	-1193.725463867188	491.6797790527344	-79.71914672851562	-1206.770629882812	779.047607421875	-26.40288352966309	-1281.521362304688	36.64414215087891	-168.33056640625	-1192.855224609375	348.0735778808594	-99.89341735839844	-1075.861572265625	36.0479736328125	-76.09551239013672	-1104.337768554688	37.1397819519043	-147.9659118652344	-1183.5283203125	37.84186553955078	-77.95399475097656	-1294.296264648438	27.50734519958496	-243.3321533203125	
